<svg xmlns="http://www.w3.org/2000/svg" viewBox="0 0 520 168" role="img" aria-label="Breathe with Diana, on dark"><g transform="translate(10,12) scale(0.3597) translate(-53.0,-104.0) translate(422,0) scale(-1,1)"><path d="M219.00 104.00C226.83 103.33 238.00 107.00 246.00 110.00C254.00 113.00 257.50 113.83 267.00 122.00C276.50 130.17 287.17 146.67 303.00 159.00C318.83 171.33 352.67 188.67 362.00 196.00C371.33 203.33 363.33 201.83 359.00 203.00C354.67 204.17 340.50 202.00 336.00 203.00C331.50 204.00 326.83 202.00 332.00 209.00C337.17 216.00 360.83 235.00 367.00 245.00C373.17 255.00 369.67 262.83 369.00 269.00C368.33 275.17 366.67 281.00 363.00 282.00C359.33 283.00 351.33 275.50 347.00 275.00C342.67 274.50 339.00 277.00 337.00 279.00C335.00 281.00 333.50 281.33 335.00 287.00C336.50 292.67 346.50 305.00 346.00 313.00C345.50 321.00 335.50 331.67 332.00 335.00C328.50 338.33 331.17 338.33 325.00 333.00C318.83 327.67 302.17 306.17 295.00 303.00C287.83 299.83 286.83 312.50 282.00 314.00C277.17 315.50 271.17 309.50 266.00 312.00C260.83 314.50 254.50 326.67 251.00 329.00C247.50 331.33 246.00 329.17 245.00 326.00C244.00 322.83 246.17 313.17 245.00 310.00C243.83 306.83 240.00 306.83 238.00 307.00C236.00 307.17 236.00 305.67 233.00 311.00C230.00 316.33 222.83 329.17 220.00 339.00C217.17 348.83 210.83 341.17 216.00 370.00C221.17 398.83 246.67 486.83 251.00 512.00C255.33 537.17 258.83 519.50 242.00 521.00C225.17 522.50 166.50 521.67 150.00 521.00C133.50 520.33 144.83 520.17 143.00 517.00C141.17 513.83 140.83 505.67 139.00 502.00C137.17 498.33 143.83 496.83 132.00 495.00C120.17 493.17 75.83 494.33 68.00 491.00C60.17 487.67 80.83 480.17 85.00 475.00C89.17 469.83 88.17 480.83 93.00 460.00C97.83 439.17 114.83 377.50 114.00 350.00C113.17 322.50 97.50 308.83 88.00 295.00C78.50 281.17 62.83 274.83 57.00 267.00C51.17 259.17 52.67 252.67 53.00 248.00C53.33 243.33 55.83 240.33 59.00 239.00C62.17 237.67 61.33 230.83 72.00 240.00C82.67 249.17 112.33 285.17 123.00 294.00C133.67 302.83 130.17 298.67 136.00 293.00C141.83 287.33 149.83 270.50 158.00 260.00C166.17 249.50 179.50 237.17 185.00 230.00C190.50 222.83 190.83 221.83 191.00 217.00C191.17 212.17 190.67 206.00 186.00 201.00C181.33 196.00 167.33 193.00 163.00 187.00C158.67 181.00 156.17 175.17 160.00 165.00C163.83 154.83 179.50 134.50 186.00 126.00C192.50 117.50 193.50 117.67 199.00 114.00C204.50 110.33 211.17 104.67 219.00 104.00Z" fill="#F4EFE6"/></g><path d="M124 40 Q124 51 120 62" fill="none" stroke="#F4EFE6" stroke-width="1.2" stroke-linecap="round"/><g fill="#F4EFE6"><circle cx="115.3" cy="63.2" r="1.55"/><circle cx="117.7" cy="61.7" r="1.65"/><circle cx="120.4" cy="61.0" r="1.6"/><circle cx="122.8" cy="61.8" r="1.45"/></g><g stroke="#3C2E24" stroke-width="0.5" fill="none" stroke-linecap="round"><path d="M114.4 64.4 Q116 62.6 116.4 60.9"/><path d="M116.8 64.6 Q118.6 62.4 119 60.4"/><path d="M119.6 64.6 Q121.2 62.2 121.7 60.8"/><path d="M122 64.2 Q123.4 62.6 124 61.6"/><path d="M114.6 67 Q118.5 66 122.4 67.2"/></g><g stroke="#F4EFE6" stroke-width="0.75" stroke-linecap="round"><line x1="124" y1="34" x2="129.4" y2="29.5"/><circle cx="129.4" cy="29.5" r="0.7" fill="#F4EFE6" stroke="none"/><line x1="124" y1="34" x2="127.0" y2="27.7"/><circle cx="127.0" cy="27.7" r="0.7" fill="#F4EFE6" stroke="none"/><line x1="124" y1="34" x2="124.0" y2="27.0"/><circle cx="124.0" cy="27.0" r="0.7" fill="#F4EFE6" stroke="none"/><line x1="124" y1="34" x2="121.0" y2="27.7"/><circle cx="121.0" cy="27.7" r="0.7" fill="#F4EFE6" stroke="none"/><line x1="124" y1="34" x2="118.6" y2="29.5"/><circle cx="118.6" cy="29.5" r="0.7" fill="#F4EFE6" stroke="none"/><line x1="124" y1="34" x2="117.2" y2="32.2"/><circle cx="117.2" cy="32.2" r="0.7" fill="#F4EFE6" stroke="none"/><line x1="124" y1="34" x2="117.1" y2="35.2"/><circle cx="117.1" cy="35.2" r="0.7" fill="#F4EFE6" stroke="none"/><line x1="124" y1="34" x2="118.3" y2="38.0"/><circle cx="118.3" cy="38.0" r="0.7" fill="#F4EFE6" stroke="none"/><line x1="124" y1="34" x2="120.5" y2="40.1"/><circle cx="120.5" cy="40.1" r="0.7" fill="#F4EFE6" stroke="none"/><line x1="124" y1="34" x2="123.4" y2="41.0"/><circle cx="123.4" cy="41.0" r="0.7" fill="#F4EFE6" stroke="none"/><line x1="124" y1="34" x2="126.4" y2="40.6"/><circle cx="126.4" cy="40.6" r="0.7" fill="#F4EFE6" stroke="none"/><line x1="124" y1="34" x2="128.9" y2="38.9"/><circle cx="128.9" cy="38.9" r="0.7" fill="#F4EFE6" stroke="none"/><line x1="124" y1="34" x2="130.6" y2="36.4"/><circle cx="130.6" cy="36.4" r="0.7" fill="#F4EFE6" stroke="none"/></g><circle cx="124" cy="34" r="1.4" fill="#F4EFE6"/><g><g transform="translate(125.1,28.5) rotate(14)" stroke="#F4EFE6" stroke-width="0.9" stroke-linecap="round"><circle r="1.52" fill="#F4EFE6" stroke="none"/><line x2="-4.3" y2="-4.3"/><line y2="-5.8"/><line x2="4.3" y2="-4.3"/></g><g transform="translate(128.3,31.2) rotate(-18)" stroke="#F4EFE6" stroke-width="0.9" stroke-linecap="round"><circle r="1.38" fill="#F4EFE6" stroke="none"/><line x2="-3.9" y2="-3.9"/><line y2="-5.3"/><line x2="3.9" y2="-3.9"/></g><g transform="translate(128.9,34.1) rotate(-24)" stroke="#F4EFE6" stroke-width="0.9" stroke-linecap="round"><circle r="1.33" fill="#F4EFE6" stroke="none"/><line x2="-3.8" y2="-3.8"/><line y2="-5.0"/><line x2="3.8" y2="-3.8"/></g><g transform="translate(130.8,32.4) rotate(-9)" stroke="#F4EFE6" stroke-width="0.9" stroke-linecap="round"><circle r="1.31" fill="#F4EFE6" stroke="none"/><line x2="-3.7" y2="-3.7"/><line y2="-5.0"/><line x2="3.7" y2="-3.7"/></g><g transform="translate(128.9,32.7) rotate(33)" stroke="#F4EFE6" stroke-width="0.9" stroke-linecap="round"><circle r="1.33" fill="#F4EFE6" stroke="none"/><line x2="-3.8" y2="-3.8"/><line y2="-5.1"/><line x2="3.8" y2="-3.8"/></g><g transform="translate(129.7,36.5) rotate(-25)" stroke="#F4EFE6" stroke-width="0.9" stroke-linecap="round"><circle r="1.30" fill="#F4EFE6" stroke="none"/><line x2="-3.7" y2="-3.7"/><line y2="-4.9"/><line x2="3.7" y2="-3.7"/></g><g transform="translate(130.6,30.3) rotate(18)" stroke="#D4A24C" stroke-width="0.9" stroke-linecap="round"><circle r="1.39" fill="#D4A24C" stroke="none"/><line x2="-4.0" y2="-4.0"/><line y2="-5.3"/><line x2="4.0" y2="-4.0"/></g><g transform="translate(131.8,38.0) rotate(9)" stroke="#F4EFE6" stroke-width="0.9" stroke-linecap="round"><circle r="1.38" fill="#F4EFE6" stroke="none"/><line x2="-3.9" y2="-3.9"/><line y2="-5.3"/><line x2="3.9" y2="-3.9"/></g><g transform="translate(137.8,39.4) rotate(29)" stroke="#F4EFE6" stroke-width="0.9" stroke-linecap="round"><circle r="1.39" fill="#F4EFE6" stroke="none"/><line x2="-4.0" y2="-4.0"/><line y2="-5.3"/><line x2="4.0" y2="-4.0"/></g><g transform="translate(141.2,27.1) rotate(-10)" stroke="#F4EFE6" stroke-width="0.9" stroke-linecap="round"><circle r="1.27" fill="#F4EFE6" stroke="none"/><line x2="-3.6" y2="-3.6"/><line y2="-4.8"/><line x2="3.6" y2="-3.6"/></g><g transform="translate(141.2,26.7) rotate(19)" stroke="#F4EFE6" stroke-width="0.9" stroke-linecap="round"><circle r="1.23" fill="#F4EFE6" stroke="none"/><line x2="-3.5" y2="-3.5"/><line y2="-4.7"/><line x2="3.5" y2="-3.5"/></g><g transform="translate(143.8,33.3) rotate(31)" stroke="#F4EFE6" stroke-width="0.9" stroke-linecap="round"><circle r="1.32" fill="#F4EFE6" stroke="none"/><line x2="-3.8" y2="-3.8"/><line y2="-5.0"/><line x2="3.8" y2="-3.8"/></g><g transform="translate(149.6,38.2) rotate(-10)" stroke="#F4EFE6" stroke-width="0.9" stroke-linecap="round"><circle r="1.27" fill="#F4EFE6" stroke="none"/><line x2="-3.6" y2="-3.6"/><line y2="-4.9"/><line x2="3.6" y2="-3.6"/></g><g transform="translate(149.1,28.7) rotate(-12)" stroke="#F4EFE6" stroke-width="0.9" stroke-linecap="round"><circle r="1.41" fill="#F4EFE6" stroke="none"/><line x2="-4.0" y2="-4.0"/><line y2="-5.4"/><line x2="4.0" y2="-4.0"/></g><g transform="translate(153.4,38.7) rotate(-32)" stroke="#F4EFE6" stroke-width="0.9" stroke-linecap="round"><circle r="1.25" fill="#F4EFE6" stroke="none"/><line x2="-3.6" y2="-3.6"/><line y2="-4.8"/><line x2="3.6" y2="-3.6"/></g><g transform="translate(161.8,45.6) rotate(23)" stroke="#F4EFE6" stroke-width="0.9" stroke-linecap="round"><circle r="1.29" fill="#F4EFE6" stroke="none"/><line x2="-3.7" y2="-3.7"/><line y2="-4.9"/><line x2="3.7" y2="-3.7"/></g><g transform="translate(166.3,46.8) rotate(2)" stroke="#F4EFE6" stroke-width="0.9" stroke-linecap="round"><circle r="1.16" fill="#F4EFE6" stroke="none"/><line x2="-3.3" y2="-3.3"/><line y2="-4.4"/><line x2="3.3" y2="-3.3"/></g><g transform="translate(171.4,47.5) rotate(24)" stroke="#D4A24C" stroke-width="0.9" stroke-linecap="round"><circle r="1.36" fill="#D4A24C" stroke="none"/><line x2="-3.9" y2="-3.9"/><line y2="-5.2"/><line x2="3.9" y2="-3.9"/></g><g transform="translate(176.5,50.7) rotate(3)" stroke="#F4EFE6" stroke-width="0.9" stroke-linecap="round"><circle r="1.34" fill="#F4EFE6" stroke="none"/><line x2="-3.8" y2="-3.8"/><line y2="-5.1"/><line x2="3.8" y2="-3.8"/></g><g transform="translate(184.5,26.7) rotate(-12)" stroke="#F4EFE6" stroke-width="0.9" stroke-linecap="round"><circle r="1.20" fill="#F4EFE6" stroke="none"/><line x2="-3.4" y2="-3.4"/><line y2="-4.6"/><line x2="3.4" y2="-3.4"/></g><g transform="translate(189.9,42.1) rotate(33)" stroke="#F4EFE6" stroke-width="0.9" stroke-linecap="round"><circle r="1.24" fill="#F4EFE6" stroke="none"/><line x2="-3.5" y2="-3.5"/><line y2="-4.7"/><line x2="3.5" y2="-3.5"/></g><g transform="translate(194.9,51.3) rotate(10)" stroke="#F4EFE6" stroke-width="0.9" stroke-linecap="round"><circle r="1.13" fill="#F4EFE6" stroke="none"/><line x2="-3.2" y2="-3.2"/><line y2="-4.3"/><line x2="3.2" y2="-3.2"/></g><g transform="translate(203.8,44.3) rotate(-18)" stroke="#F4EFE6" stroke-width="0.9" stroke-linecap="round"><circle r="1.08" fill="#F4EFE6" stroke="none"/><line x2="-3.1" y2="-3.1"/><line y2="-4.1"/><line x2="3.1" y2="-3.1"/></g><g transform="translate(203.1,28.2) rotate(23)" stroke="#F4EFE6" stroke-width="0.9" stroke-linecap="round"><circle r="1.22" fill="#F4EFE6" stroke="none"/><line x2="-3.5" y2="-3.5"/><line y2="-4.6"/><line x2="3.5" y2="-3.5"/></g><g transform="translate(217.9,28.2) rotate(7)" stroke="#F4EFE6" stroke-width="0.9" stroke-linecap="round"><circle r="1.10" fill="#F4EFE6" stroke="none"/><line x2="-3.2" y2="-3.2"/><line y2="-4.2"/><line x2="3.2" y2="-3.2"/></g><g transform="translate(227.1,64.0) rotate(34)" stroke="#F4EFE6" stroke-width="0.9" stroke-linecap="round"><circle r="0.98" fill="#F4EFE6" stroke="none"/><line x2="-2.8" y2="-2.8"/><line y2="-3.7"/><line x2="2.8" y2="-2.8"/></g><g transform="translate(234.9,58.9) rotate(23)" stroke="#F4EFE6" stroke-width="0.9" stroke-linecap="round"><circle r="1.04" fill="#F4EFE6" stroke="none"/><line x2="-3.0" y2="-3.0"/><line y2="-4.0"/><line x2="3.0" y2="-3.0"/></g><g transform="translate(237.1,68.3) rotate(5)" stroke="#F4EFE6" stroke-width="0.9" stroke-linecap="round"><circle r="0.98" fill="#F4EFE6" stroke="none"/><line x2="-2.8" y2="-2.8"/><line y2="-3.7"/><line x2="2.8" y2="-2.8"/></g><g transform="translate(246.5,45.8) rotate(22)" stroke="#F4EFE6" stroke-width="0.9" stroke-linecap="round"><circle r="0.87" fill="#F4EFE6" stroke="none"/><line x2="-2.5" y2="-2.5"/><line y2="-3.3"/><line x2="2.5" y2="-2.5"/></g><g transform="translate(266.2,61.7) rotate(34)" stroke="#F4EFE6" stroke-width="0.9" stroke-linecap="round"><circle r="0.95" fill="#F4EFE6" stroke="none"/><line x2="-2.7" y2="-2.7"/><line y2="-3.6"/><line x2="2.7" y2="-2.7"/></g><g transform="translate(272.7,63.6) rotate(-1)" stroke="#F4EFE6" stroke-width="0.9" stroke-linecap="round"><circle r="0.99" fill="#F4EFE6" stroke="none"/><line x2="-2.8" y2="-2.8"/><line y2="-3.8"/><line x2="2.8" y2="-2.8"/></g><g transform="translate(277.2,58.4) rotate(25)" stroke="#F4EFE6" stroke-width="0.9" stroke-linecap="round"><circle r="0.91" fill="#F4EFE6" stroke="none"/><line x2="-2.6" y2="-2.6"/><line y2="-3.5"/><line x2="2.6" y2="-2.6"/></g><g transform="translate(287.3,58.8) rotate(2)" stroke="#F4EFE6" stroke-width="0.9" stroke-linecap="round"><circle r="0.79" fill="#F4EFE6" stroke="none"/><line x2="-2.3" y2="-2.3"/><line y2="-3.0"/><line x2="2.3" y2="-2.3"/></g><g transform="translate(298.3,45.1) rotate(-2)" stroke="#F4EFE6" stroke-width="0.9" stroke-linecap="round"><circle r="0.74" fill="#F4EFE6" stroke="none"/><line x2="-2.1" y2="-2.1"/><line y2="-2.8"/><line x2="2.1" y2="-2.1"/></g><g transform="translate(309.6,33.3) rotate(-33)" stroke="#F4EFE6" stroke-width="0.9" stroke-linecap="round"><circle r="0.63" fill="#F4EFE6" stroke="none"/><line x2="-1.8" y2="-1.8"/><line y2="-2.4"/><line x2="1.8" y2="-1.8"/></g><g transform="translate(333.9,57.7) rotate(16)" stroke="#F4EFE6" stroke-width="0.9" stroke-linecap="round"><circle r="0.62" fill="#F4EFE6" stroke="none"/><line x2="-1.8" y2="-1.8"/><line y2="-2.4"/><line x2="1.8" y2="-1.8"/></g><g transform="translate(350.6,56.8) rotate(15)" stroke="#F4EFE6" stroke-width="0.9" stroke-linecap="round"><circle r="0.65" fill="#F4EFE6" stroke="none"/><line x2="-1.9" y2="-1.9"/><line y2="-2.5"/><line x2="1.9" y2="-1.9"/></g></g><path d="M158.08 90.4 158.52 89.88Q161.0 89.88 162.86 90.75999999999999Q164.72 91.64 165.74 93.16Q166.76 94.68 166.76 96.68Q166.76 98.8 165.66 100.5Q164.56 102.2 162.66 103.18Q160.76 104.16 158.4 104.16Q157.2 104.16 155.56 104.03999999999999Q153.92 103.92 152.56 103.92Q151.2 103.92 149.95999999999998 103.96000000000001Q148.72 104.0 147.72 104.0Q147.6 104.0 147.6 103.75999999999999Q147.6 103.52 147.72 103.52Q149.04 103.52 149.76 103.32Q150.48 103.12 150.74 102.52000000000001Q151.0 101.92 151.0 100.76V82.24Q151.0 81.08 150.76 80.5Q150.52 79.92 149.82 79.7Q149.12 79.48 147.76 79.48Q147.68 79.48 147.68 79.24000000000001Q147.68 79.0 147.76 79.0Q148.76 79.0 149.98 79.06Q151.2 79.12 152.56 79.12Q153.64 79.12 154.95999999999998 79.0Q156.28 78.88 157.32 78.88Q159.72 78.88 161.26 79.53999999999999Q162.8 80.2 163.56 81.38Q164.32 82.56 164.32 84.12Q164.32 86.36 162.64 88.03999999999999Q160.96 89.72 158.08 90.4ZM156.56 79.56Q155.68 79.56 155.14 79.74000000000001Q154.6 79.92 154.38 80.5Q154.16 81.08 154.16 82.32V90.16L152.84 89.84Q154.12 89.92 154.96 89.94Q155.8 89.96 155.92 89.96Q158.72 89.96 159.95999999999998 88.35999999999999Q161.2 86.75999999999999 161.2 84.44Q161.2 83.0 160.7 81.9Q160.2 80.8 159.2 80.18Q158.2 79.56 156.56 79.56ZM157.76 103.36Q160.68 103.36 162.02 101.86Q163.36 100.36 163.36 97.64Q163.36 94.68 161.72000000000003 92.78Q160.08 90.88 156.92 90.88Q156.12 90.84 155.07999999999998 90.88Q154.04 90.92 152.96 91.08L154.16 90.64V100.76Q154.16 101.68 154.42000000000002 102.26Q154.68 102.84 155.46 103.1Q156.24 103.36 157.76 103.36Z M174.76000000000002 93.16 174.52 92.72Q176.04000000000002 90.88 177.04000000000002 89.91999999999999Q178.04000000000002 88.96 178.76000000000002 88.58Q179.48000000000002 88.2 180.12 88.2Q180.96 88.2 181.8 88.72Q182.64000000000001 89.24 182.64000000000001 90.03999999999999Q182.64000000000001 90.64 182.24 91.06Q181.84 91.48 181.16000000000003 91.48Q180.52 91.48 180.14000000000001 91.12Q179.76000000000002 90.76 179.38 90.42Q179.0 90.08 178.36 90.08Q178.04000000000002 90.08 177.64000000000001 90.28Q177.24 90.48 176.58 91.14Q175.92000000000002 91.8 174.76000000000002 93.16ZM170.52 104.0Q170.4 104.0 170.4 103.75999999999999Q170.4 103.52 170.52 103.52Q171.96 103.52 172.42000000000002 102.97999999999999Q172.88000000000002 102.44 172.88000000000002 100.76V92.96Q172.88000000000002 91.68 172.58 91.08000000000001Q172.28 90.48 171.56 90.48Q171.16000000000003 90.48 170.64000000000001 90.62Q170.12 90.76 169.44 91.03999999999999Q169.28 91.12 169.2 90.9Q169.12 90.68 169.24 90.6L174.16000000000003 88.24Q174.32000000000002 88.2 174.4 88.2Q174.76000000000002 88.2 175.20000000000002 89.08Q175.64000000000001 89.96 175.64000000000001 91.6V100.76Q175.64000000000001 101.88 175.94 102.47999999999999Q176.24 103.08 177.06 103.3Q177.88000000000002 103.52 179.44 103.52Q179.56 103.52 179.56 103.75999999999999Q179.56 104.0 179.44 104.0Q178.4 104.0 177.08 103.96000000000001Q175.76000000000002 103.92 174.28 103.92Q173.20000000000002 103.92 172.22000000000003 103.96000000000001Q171.24 104.0 170.52 104.0Z M192.52 104.48Q190.04 104.48 188.36 103.38Q186.68 102.28 185.82 100.52000000000001Q184.96 98.76 184.96 96.76Q184.96 94.36 186.10000000000002 92.42Q187.24 90.48 189.2 89.34Q191.16 88.2 193.56 88.2Q195.88 88.2 197.14 89.36Q198.4 90.52 198.4 92.76Q198.4 93.28 198.3 93.58Q198.2 93.88 197.92000000000002 93.88H195.16Q195.32 91.48 194.54 90.24000000000001Q193.76 89.0 192.2 89.0Q190.24 89.0 189.14 90.68Q188.04 92.36 188.04 95.2Q188.04 97.48 188.76 99.22Q189.48 100.96 190.88 101.91999999999999Q192.28 102.88 194.28 102.88Q195.6 102.88 196.45999999999998 102.52Q197.32 102.16 198.24 101.64Q198.32 101.56 198.45999999999998 101.74000000000001Q198.6 101.92 198.52 102.04Q197.08 103.36 195.60000000000002 103.92Q194.12 104.48 192.52 104.48ZM187.12 93.92 187.08 93.32 196.04 93.16V93.88Z M212.64 104.24Q212.48 104.32 212.28 104.32Q211.68 104.32 211.14 103.41999999999999Q210.6 102.52 210.6 100.84V93.52Q210.6 91.03999999999999 209.98000000000002 89.97999999999999Q209.36 88.92 208.28 88.92Q207.28 88.92 206.68 89.46000000000001Q206.08 90.0 205.82 90.7Q205.56 91.4 205.44 92.0Q205.36 92.76 204.98000000000002 93.28Q204.6 93.8 203.72 93.8Q202.92 93.8 202.56 93.4Q202.2 93.0 202.2 92.52Q202.2 91.68 202.98 90.92Q203.76 90.16 204.95999999999998 89.52Q206.16 88.88 207.45999999999998 88.52Q208.76 88.16 209.8 88.16Q211.44 88.16 212.38 89.22Q213.32 90.28 213.32 92.32V99.68Q213.32 101.0 213.68 101.64Q214.04 102.28 214.84 102.28Q215.52 102.28 216.6 101.84Q216.76 101.76 216.86 101.98Q216.96 102.2 216.76 102.28ZM205.28 104.28Q203.68 104.28 202.86 103.48Q202.04 102.68 202.04 101.48Q202.04 100.52 202.56 99.86Q203.08 99.2 204.06 98.68Q205.04 98.16 206.44 97.64L211.0 95.96L211.12 96.48L207.48 97.96Q206.88 98.2 206.38 98.52000000000001Q205.88 98.84 205.56 99.30000000000001Q205.24 99.76 205.24 100.4Q205.24 101.36 205.88 101.97999999999999Q206.52 102.6 207.44 102.6Q207.8 102.6 208.2 102.47999999999999Q208.6 102.36 209.16 102.04L211.52 100.56L211.6 101.12L208.68 103.04Q207.76 103.72 206.98 104.0Q206.2 104.28 205.28 104.28Z M224.28 104.48Q223.32000000000002 104.48 222.40000000000003 104.18Q221.48000000000002 103.88 220.90000000000003 103.12Q220.32000000000002 102.36 220.32000000000002 101.08V91.84Q220.32000000000002 90.92 220.16000000000003 90.44Q220.0 89.96 219.56 89.8Q219.12 89.64 218.24 89.64Q218.12 89.64 218.12 89.34Q218.12 89.03999999999999 218.24 89.03999999999999Q220.0 89.0 221.10000000000002 88.18Q222.20000000000002 87.36 222.48000000000002 85.92Q222.52 85.8 222.8 85.8Q223.08 85.8 223.08 85.92V99.72Q223.08 101.36 223.9 102.12Q224.72 102.88 226.16000000000003 102.88Q227.16000000000003 102.88 227.98000000000002 102.52Q228.8 102.16 229.32000000000002 101.76Q229.48000000000002 101.64 229.62 101.82Q229.76000000000002 102.0 229.60000000000002 102.12Q228.12 103.36 226.88 103.92Q225.64000000000001 104.48 224.28 104.48ZM228.4 90.52Q226.8 90.16 225.32 90.03999999999999Q223.84 89.92 222.20000000000002 89.92V89.0Q223.8 89.0 225.3 88.88Q226.8 88.76 228.52 88.6Q228.64000000000001 88.6 228.72000000000003 88.88Q228.8 89.16 228.8 89.52Q228.8 89.84 228.68 90.2Q228.56 90.56 228.4 90.52Z M231.28000000000003 104.0Q231.20000000000002 104.0 231.20000000000002 103.75999999999999Q231.20000000000002 103.52 231.28000000000003 103.52Q232.76000000000002 103.52 233.22000000000003 102.97999999999999Q233.68000000000004 102.44 233.68000000000004 100.76V80.2Q233.68000000000004 78.8 233.42000000000002 78.16Q233.16000000000003 77.52 232.48000000000002 77.52Q231.88000000000002 77.52 230.72000000000003 78.03999999999999Q230.60000000000002 78.12 230.48000000000002 77.88Q230.36 77.64 230.48000000000002 77.6L235.84000000000003 75.0Q235.88000000000002 75.0 235.90000000000003 75.0Q235.92000000000002 75.0 235.96 75.0Q236.12000000000003 75.0 236.26000000000005 75.12Q236.40000000000003 75.24 236.40000000000003 75.4V100.76Q236.40000000000003 102.44 236.88000000000002 102.97999999999999Q237.36 103.52 238.84000000000003 103.52Q238.96000000000004 103.52 238.96000000000004 103.75999999999999Q238.96000000000004 104.0 238.84000000000003 104.0Q238.08 104.0 237.12 103.96000000000001Q236.16000000000003 103.92 235.08 103.92Q234.00000000000003 103.92 233.02000000000004 103.96000000000001Q232.04000000000002 104.0 231.28000000000003 104.0ZM242.04000000000002 104.0Q241.96000000000004 104.0 241.96000000000004 103.75999999999999Q241.96000000000004 103.52 242.04000000000002 103.52Q243.52 103.52 243.98000000000002 102.97999999999999Q244.44000000000003 102.44 244.44000000000003 100.76V94.6Q244.44000000000003 90.03999999999999 240.92000000000002 90.03999999999999Q239.52 90.03999999999999 238.08 90.88Q236.64000000000001 91.72 235.68000000000004 93.12L235.48000000000002 92.64Q237.16000000000003 90.4 238.90000000000003 89.26Q240.64000000000001 88.12 242.56000000000003 88.12Q244.76000000000002 88.12 245.96000000000004 89.4Q247.16000000000003 90.68 247.16000000000003 93.03999999999999V100.76Q247.16000000000003 102.44 247.64000000000004 102.97999999999999Q248.12000000000003 103.52 249.60000000000002 103.52Q249.72000000000003 103.52 249.72000000000003 103.75999999999999Q249.72000000000003 104.0 249.60000000000002 104.0Q248.84000000000003 104.0 247.88000000000002 103.96000000000001Q246.92000000000002 103.92 245.84000000000003 103.92Q244.76000000000002 103.92 243.78000000000003 103.96000000000001Q242.8 104.0 242.04000000000002 104.0Z M259.36 104.48Q256.88000000000005 104.48 255.20000000000005 103.38Q253.52000000000004 102.28 252.66000000000003 100.52000000000001Q251.80000000000004 98.76 251.80000000000004 96.76Q251.80000000000004 94.36 252.94000000000005 92.42Q254.08000000000004 90.48 256.0400000000001 89.34Q258.00000000000006 88.2 260.40000000000003 88.2Q262.72 88.2 263.98 89.36Q265.24 90.52 265.24 92.76Q265.24 93.28 265.14 93.58Q265.04 93.88 264.76000000000005 93.88H262.00000000000006Q262.16 91.48 261.38 90.24000000000001Q260.6 89.0 259.04 89.0Q257.08000000000004 89.0 255.98000000000002 90.68Q254.88000000000002 92.36 254.88000000000002 95.2Q254.88000000000002 97.48 255.60000000000002 99.22Q256.32000000000005 100.96 257.72 101.91999999999999Q259.12000000000006 102.88 261.12000000000006 102.88Q262.44000000000005 102.88 263.30000000000007 102.52Q264.16 102.16 265.08000000000004 101.64Q265.16 101.56 265.30000000000007 101.74000000000001Q265.44000000000005 101.92 265.36 102.04Q263.92 103.36 262.44000000000005 103.92Q260.96000000000004 104.48 259.36 104.48ZM253.96000000000004 93.92 253.92000000000004 93.32 262.88000000000005 93.16V93.88Z M294.16 103.96 288.40000000000003 91.88Q287.56000000000006 90.12 287.06000000000006 89.58Q286.56000000000006 89.03999999999999 285.80000000000007 89.03999999999999Q285.72 89.03999999999999 285.72 88.8Q285.72 88.56 285.80000000000007 88.56Q286.40000000000003 88.56 287.1 88.6Q287.80000000000007 88.64 288.72 88.64Q290.08000000000004 88.64 291.1 88.6Q292.12000000000006 88.56 292.9200000000001 88.56Q293.04 88.56 293.04 88.8Q293.04 89.03999999999999 292.9200000000001 89.03999999999999Q291.80000000000007 89.03999999999999 291.1600000000001 89.38Q290.52000000000004 89.72 290.96000000000004 90.6L295.96000000000004 100.92L294.56000000000006 103.12L299.12000000000006 92.03999999999999Q299.72 90.52 299.0400000000001 89.78Q298.36000000000007 89.03999999999999 296.44000000000005 89.03999999999999Q296.32000000000005 89.03999999999999 296.32000000000005 88.8Q296.32000000000005 88.56 296.44000000000005 88.56Q297.36000000000007 88.56 298.22 88.6Q299.08000000000004 88.64 300.44000000000005 88.64Q301.36000000000007 88.64 301.9200000000001 88.6Q302.48 88.56 303.24000000000007 88.56Q303.36000000000007 88.56 303.36000000000007 88.8Q303.36000000000007 89.03999999999999 303.24000000000007 89.03999999999999Q302.24000000000007 89.03999999999999 301.48 89.74Q300.72 90.44 300.00000000000006 92.16L295.04 103.96Q294.96000000000004 104.12 294.6 104.12Q294.24000000000007 104.12 294.16 103.96ZM284.6 103.96 278.80000000000007 91.88Q277.96000000000004 90.08 277.40000000000003 89.56Q276.84000000000003 89.03999999999999 276.04 89.03999999999999Q275.9200000000001 89.03999999999999 275.9200000000001 88.8Q275.9200000000001 88.56 276.04 88.56Q276.64000000000004 88.56 277.40000000000003 88.6Q278.16 88.64 279.12000000000006 88.64Q280.48 88.64 281.48 88.6Q282.48 88.56 283.36000000000007 88.56Q283.48 88.56 283.48 88.8Q283.48 89.03999999999999 283.36000000000007 89.03999999999999Q282.20000000000005 89.03999999999999 281.5400000000001 89.36Q280.88000000000005 89.68 281.32000000000005 90.6L286.40000000000003 100.92L284.96000000000004 103.12L289.32000000000005 92.6L290.12000000000006 92.92L285.48 103.96Q285.44000000000005 104.12 285.06000000000006 104.12Q284.68000000000006 104.12 284.6 103.96Z M305.16 104.0Q305.04 104.0 305.04 103.75999999999999Q305.04 103.52 305.16 103.52Q306.6 103.52 307.08000000000004 102.97999999999999Q307.56000000000006 102.44 307.56000000000006 100.76V93.4Q307.56000000000006 92.0 307.2800000000001 91.36Q307.00000000000006 90.72 306.28000000000003 90.72Q305.96000000000004 90.72 305.5400000000001 90.84Q305.12000000000006 90.96 304.56000000000006 91.24Q304.40000000000003 91.28 304.30000000000007 91.06Q304.20000000000005 90.84 304.36000000000007 90.76L309.80000000000007 88.24Q309.9200000000001 88.2 309.96000000000004 88.2Q310.08000000000004 88.2 310.22 88.32Q310.36000000000007 88.44 310.36000000000007 88.6Q310.36000000000007 88.96 310.32000000000005 90.16Q310.28000000000003 91.36 310.28000000000003 93.32V100.76Q310.28000000000003 102.44 310.74 102.97999999999999Q311.20000000000005 103.52 312.68000000000006 103.52Q312.80000000000007 103.52 312.80000000000007 103.75999999999999Q312.80000000000007 104.0 312.68000000000006 104.0Q311.96000000000004 104.0 310.98 103.96000000000001Q310.00000000000006 103.92 308.9200000000001 103.92Q307.84000000000003 103.92 306.88000000000005 103.96000000000001Q305.9200000000001 104.0 305.16 104.0Z M321.4800000000001 104.48Q320.52000000000004 104.48 319.6 104.18Q318.68000000000006 103.88 318.1 103.12Q317.52000000000004 102.36 317.52000000000004 101.08V91.84Q317.52000000000004 90.92 317.36 90.44Q317.20000000000005 89.96 316.76000000000005 89.8Q316.32000000000005 89.64 315.44000000000005 89.64Q315.32000000000005 89.64 315.32000000000005 89.34Q315.32000000000005 89.03999999999999 315.44000000000005 89.03999999999999Q317.20000000000005 89.0 318.30000000000007 88.18Q319.40000000000003 87.36 319.68000000000006 85.92Q319.7200000000001 85.8 320.00000000000006 85.8Q320.28000000000003 85.8 320.28000000000003 85.92V99.72Q320.28000000000003 101.36 321.1 102.12Q321.9200000000001 102.88 323.36000000000007 102.88Q324.36000000000007 102.88 325.18000000000006 102.52Q326.00000000000006 102.16 326.52000000000004 101.76Q326.68000000000006 101.64 326.82000000000005 101.82Q326.96000000000004 102.0 326.80000000000007 102.12Q325.32000000000005 103.36 324.08000000000004 103.92Q322.84000000000003 104.48 321.4800000000001 104.48ZM325.6000000000001 90.52Q324.00000000000006 90.16 322.5200000000001 90.03999999999999Q321.0400000000001 89.92 319.40000000000003 89.92V89.0Q321.00000000000006 89.0 322.50000000000006 88.88Q324.00000000000006 88.76 325.7200000000001 88.6Q325.84000000000003 88.6 325.9200000000001 88.88Q326.00000000000006 89.16 326.00000000000006 89.52Q326.00000000000006 89.84 325.88000000000005 90.2Q325.76000000000005 90.56 325.6000000000001 90.52Z M328.48 104.0Q328.40000000000003 104.0 328.40000000000003 103.75999999999999Q328.40000000000003 103.52 328.48 103.52Q329.96000000000004 103.52 330.4200000000001 102.97999999999999Q330.88000000000005 102.44 330.88000000000005 100.76V80.2Q330.88000000000005 78.8 330.62 78.16Q330.36 77.52 329.68000000000006 77.52Q329.08000000000004 77.52 327.92 78.03999999999999Q327.8 78.12 327.68000000000006 77.88Q327.56000000000006 77.64 327.68000000000006 77.6L333.04 75.0Q333.08000000000004 75.0 333.1 75.0Q333.12000000000006 75.0 333.16 75.0Q333.32000000000005 75.0 333.46000000000004 75.12Q333.6 75.24 333.6 75.4V100.76Q333.6 102.44 334.08000000000004 102.97999999999999Q334.56000000000006 103.52 336.04 103.52Q336.16 103.52 336.16 103.75999999999999Q336.16 104.0 336.04 104.0Q335.28000000000003 104.0 334.32000000000005 103.96000000000001Q333.36 103.92 332.28000000000003 103.92Q331.20000000000005 103.92 330.22 103.96000000000001Q329.24000000000007 104.0 328.48 104.0ZM339.24000000000007 104.0Q339.16 104.0 339.16 103.75999999999999Q339.16 103.52 339.24000000000007 103.52Q340.72 103.52 341.18000000000006 102.97999999999999Q341.64000000000004 102.44 341.64000000000004 100.76V94.6Q341.64000000000004 90.03999999999999 338.12000000000006 90.03999999999999Q336.72 90.03999999999999 335.28000000000003 90.88Q333.84000000000003 91.72 332.88000000000005 93.12L332.68000000000006 92.64Q334.36 90.4 336.1 89.26Q337.84000000000003 88.12 339.76000000000005 88.12Q341.96000000000004 88.12 343.16 89.4Q344.36 90.68 344.36 93.03999999999999V100.76Q344.36 102.44 344.84000000000003 102.97999999999999Q345.32000000000005 103.52 346.80000000000007 103.52Q346.92 103.52 346.92 103.75999999999999Q346.92 104.0 346.80000000000007 104.0Q346.04 104.0 345.08000000000004 103.96000000000001Q344.12000000000006 103.92 343.04 103.92Q341.96000000000004 103.92 340.98 103.96000000000001Q340.00000000000006 104.0 339.24000000000007 104.0Z M369.36 104.16Q368.16 104.16 366.40000000000003 104.03999999999999Q364.64000000000004 103.92 363.16 103.92Q361.8 103.92 360.54 103.96000000000001Q359.28000000000003 104.0 358.28000000000003 104.0Q358.20000000000005 104.0 358.20000000000005 103.75999999999999Q358.20000000000005 103.52 358.28000000000003 103.52Q359.68000000000006 103.52 360.4000000000001 103.32Q361.12000000000006 103.12 361.36 102.52000000000001Q361.6 101.92 361.6 100.76V82.24Q361.6 81.08 361.36 80.5Q361.12000000000006 79.92 360.4200000000001 79.7Q359.72 79.48 358.36 79.48Q358.24 79.48 358.24 79.24000000000001Q358.24 79.0 358.36 79.0Q359.36 79.0 360.58000000000004 79.06Q361.8 79.12 363.16 79.12Q364.52000000000004 79.12 366.1 79.02000000000001Q367.68000000000006 78.92 368.8 78.92Q373.04 78.92 376.18000000000006 80.52000000000001Q379.32000000000005 82.12 381.08000000000004 84.88Q382.84000000000003 87.64 382.84000000000003 91.08Q382.84000000000003 94.08 381.78000000000003 96.5Q380.72 98.92 378.84000000000003 100.62Q376.96000000000004 102.32 374.52000000000004 103.24Q372.08000000000004 104.16 369.36 104.16ZM368.96000000000004 103.44Q371.96000000000004 103.44 374.26000000000005 102.12Q376.56000000000006 100.8 377.88000000000005 98.22Q379.20000000000005 95.64 379.20000000000005 91.96Q379.20000000000005 88.48 377.96000000000004 85.7Q376.72 82.92 374.5 81.25999999999999Q372.28000000000003 79.6 369.20000000000005 79.6Q366.8 79.6 365.78000000000003 80.08Q364.76000000000005 80.56 364.76000000000005 82.32V100.32Q364.76000000000005 101.92 365.56000000000006 102.68Q366.36 103.44 368.96000000000004 103.44Z M386.76 104.0Q386.64 104.0 386.64 103.75999999999999Q386.64 103.52 386.76 103.52Q388.2 103.52 388.68 102.97999999999999Q389.16 102.44 389.16 100.76V93.4Q389.16 92.0 388.88 91.36Q388.6 90.72 387.88 90.72Q387.56 90.72 387.14 90.84Q386.72 90.96 386.16 91.24Q386.0 91.28 385.9 91.06Q385.8 90.84 385.96000000000004 90.76L391.40000000000003 88.24Q391.52000000000004 88.2 391.56 88.2Q391.68 88.2 391.82000000000005 88.32Q391.96000000000004 88.44 391.96000000000004 88.6Q391.96000000000004 88.96 391.92 90.16Q391.88 91.36 391.88 93.32V100.76Q391.88 102.44 392.34000000000003 102.97999999999999Q392.8 103.52 394.28000000000003 103.52Q394.40000000000003 103.52 394.40000000000003 103.75999999999999Q394.40000000000003 104.0 394.28000000000003 104.0Q393.56 104.0 392.58000000000004 103.96000000000001Q391.6 103.92 390.52000000000004 103.92Q389.44 103.92 388.48 103.96000000000001Q387.52000000000004 104.0 386.76 104.0Z M408.24 104.24Q408.08000000000004 104.32 407.88 104.32Q407.28000000000003 104.32 406.74 103.41999999999999Q406.20000000000005 102.52 406.20000000000005 100.84V93.52Q406.20000000000005 91.03999999999999 405.58000000000004 89.97999999999999Q404.96000000000004 88.92 403.88 88.92Q402.88 88.92 402.28 89.46000000000001Q401.68 90.0 401.42 90.7Q401.16 91.4 401.04 92.0Q400.96000000000004 92.76 400.58000000000004 93.28Q400.20000000000005 93.8 399.32000000000005 93.8Q398.52000000000004 93.8 398.16 93.4Q397.8 93.0 397.8 92.52Q397.8 91.68 398.58000000000004 90.92Q399.36 90.16 400.56000000000006 89.52Q401.76000000000005 88.88 403.06000000000006 88.52Q404.36 88.16 405.40000000000003 88.16Q407.04 88.16 407.98 89.22Q408.92 90.28 408.92 92.32V99.68Q408.92 101.0 409.28000000000003 101.64Q409.64000000000004 102.28 410.44 102.28Q411.12 102.28 412.20000000000005 101.84Q412.36 101.76 412.46000000000004 101.98Q412.56 102.2 412.36 102.28ZM400.88 104.28Q399.28000000000003 104.28 398.46000000000004 103.48Q397.64000000000004 102.68 397.64000000000004 101.48Q397.64000000000004 100.52 398.16 99.86Q398.68 99.2 399.66 98.68Q400.64000000000004 98.16 402.04 97.64L406.6 95.96L406.72 96.48L403.08000000000004 97.96Q402.48 98.2 401.98 98.52000000000001Q401.48 98.84 401.16 99.30000000000001Q400.84000000000003 99.76 400.84000000000003 100.4Q400.84000000000003 101.36 401.48 101.97999999999999Q402.12 102.6 403.04 102.6Q403.40000000000003 102.6 403.80000000000007 102.47999999999999Q404.20000000000005 102.36 404.76000000000005 102.04L407.12 100.56L407.20000000000005 101.12L404.28000000000003 103.04Q403.36 103.72 402.58000000000004 104.0Q401.8 104.28 400.88 104.28Z M424.88000000000005 104.0Q424.76000000000005 104.0 424.76000000000005 103.75999999999999Q424.76000000000005 103.52 424.88000000000005 103.52Q426.32000000000005 103.52 426.78000000000003 102.97999999999999Q427.24 102.44 427.24 100.76V94.48Q427.24 92.2 426.40000000000003 91.1Q425.56000000000006 90.0 423.72 90.0Q422.32000000000005 90.0 420.90000000000003 90.82Q419.48 91.64 418.48 93.08L418.32000000000005 92.6Q419.96000000000004 90.36 421.70000000000005 89.19999999999999Q423.44000000000005 88.03999999999999 425.36 88.03999999999999Q427.56000000000006 88.03999999999999 428.7800000000001 89.32Q430.00000000000006 90.6 430.00000000000006 92.96V100.76Q430.00000000000006 102.44 430.46000000000004 102.97999999999999Q430.92 103.52 432.40000000000003 103.52Q432.52000000000004 103.52 432.52000000000004 103.75999999999999Q432.52000000000004 104.0 432.40000000000003 104.0Q431.64000000000004 104.0 430.68000000000006 103.96000000000001Q429.72 103.92 428.64000000000004 103.92Q427.56000000000006 103.92 426.58000000000004 103.96000000000001Q425.6 104.0 424.88000000000005 104.0ZM414.12000000000006 104.0Q414.00000000000006 104.0 414.00000000000006 103.75999999999999Q414.00000000000006 103.52 414.12000000000006 103.52Q415.56000000000006 103.52 416.02000000000004 102.97999999999999Q416.48 102.44 416.48 100.76V92.96Q416.48 91.68 416.18000000000006 91.08000000000001Q415.88000000000005 90.48 415.16 90.48Q414.76000000000005 90.48 414.24 90.62Q413.72 90.76 413.04 91.03999999999999Q412.88000000000005 91.12 412.80000000000007 90.9Q412.72 90.68 412.84000000000003 90.6L417.76000000000005 88.24Q417.92 88.2 418.00000000000006 88.2Q418.36 88.2 418.8 89.08Q419.24 89.96 419.24 91.6V100.76Q419.24 102.44 419.70000000000005 102.97999999999999Q420.16 103.52 421.64000000000004 103.52Q421.76000000000005 103.52 421.76000000000005 103.75999999999999Q421.76000000000005 104.0 421.64000000000004 104.0Q420.88000000000005 104.0 419.9200000000001 103.96000000000001Q418.96000000000004 103.92 417.88000000000005 103.92Q416.8 103.92 415.82000000000005 103.96000000000001Q414.84000000000003 104.0 414.12000000000006 104.0Z M445.84000000000003 104.24Q445.68000000000006 104.32 445.48 104.32Q444.88000000000005 104.32 444.34000000000003 103.41999999999999Q443.80000000000007 102.52 443.80000000000007 100.84V93.52Q443.80000000000007 91.03999999999999 443.18000000000006 89.97999999999999Q442.56000000000006 88.92 441.48 88.92Q440.48 88.92 439.88 89.46000000000001Q439.28000000000003 90.0 439.02000000000004 90.7Q438.76000000000005 91.4 438.64000000000004 92.0Q438.56000000000006 92.76 438.18000000000006 93.28Q437.80000000000007 93.8 436.9200000000001 93.8Q436.12000000000006 93.8 435.76000000000005 93.4Q435.40000000000003 93.0 435.40000000000003 92.52Q435.40000000000003 91.68 436.18000000000006 90.92Q436.96000000000004 90.16 438.1600000000001 89.52Q439.36000000000007 88.88 440.6600000000001 88.52Q441.96000000000004 88.16 443.00000000000006 88.16Q444.64000000000004 88.16 445.58000000000004 89.22Q446.52000000000004 90.28 446.52000000000004 92.32V99.68Q446.52000000000004 101.0 446.88000000000005 101.64Q447.24000000000007 102.28 448.04 102.28Q448.72 102.28 449.80000000000007 101.84Q449.96000000000004 101.76 450.06000000000006 101.98Q450.16 102.2 449.96000000000004 102.28ZM438.48 104.28Q436.88000000000005 104.28 436.06000000000006 103.48Q435.24000000000007 102.68 435.24000000000007 101.48Q435.24000000000007 100.52 435.76000000000005 99.86Q436.28000000000003 99.2 437.26000000000005 98.68Q438.24000000000007 98.16 439.64000000000004 97.64L444.20000000000005 95.96L444.32000000000005 96.48L440.68000000000006 97.96Q440.08000000000004 98.2 439.58000000000004 98.52000000000001Q439.08000000000004 98.84 438.76000000000005 99.30000000000001Q438.44000000000005 99.76 438.44000000000005 100.4Q438.44000000000005 101.36 439.08000000000004 101.97999999999999Q439.72 102.6 440.64000000000004 102.6Q441.00000000000006 102.6 441.4000000000001 102.47999999999999Q441.80000000000007 102.36 442.36000000000007 102.04L444.72 100.56L444.80000000000007 101.12L441.88000000000005 103.04Q440.96000000000004 103.72 440.18000000000006 104.0Q439.40000000000003 104.28 438.48 104.28Z" fill="#F4EFE6"/><g transform="translate(308.0,80.0) rotate(22)" stroke="#F4EFE6" stroke-width="0.9" stroke-linecap="round"><circle r="1.31" fill="#F4EFE6" stroke="none"/><line x2="-3.8" y2="-3.8"/><line y2="-5.0"/><line x2="3.8" y2="-3.8"/></g><g transform="translate(389.5,80.0) rotate(33)" stroke="#F4EFE6" stroke-width="0.9" stroke-linecap="round"><circle r="1.31" fill="#F4EFE6" stroke="none"/><line x2="-3.8" y2="-3.8"/><line y2="-5.0"/><line x2="3.8" y2="-3.8"/></g></svg>
