<svg xmlns="http://www.w3.org/2000/svg" viewBox="0 0 45 45" shape-rendering="crispEdges"><rect width="45" height="45" fill="#F4EFE6"/><path fill="#5B4636" d="M4 4h1v1h-1zM5 4h1v1h-1zM6 4h1v1h-1zM7 4h1v1h-1zM8 4h1v1h-1zM9 4h1v1h-1zM10 4h1v1h-1zM12 4h1v1h-1zM16 4h1v1h-1zM21 4h1v1h-1zM23 4h1v1h-1zM24 4h1v1h-1zM25 4h1v1h-1zM26 4h1v1h-1zM27 4h1v1h-1zM28 4h1v1h-1zM34 4h1v1h-1zM35 4h1v1h-1zM36 4h1v1h-1zM37 4h1v1h-1zM38 4h1v1h-1zM39 4h1v1h-1zM40 4h1v1h-1zM4 5h1v1h-1zM10 5h1v1h-1zM14 5h1v1h-1zM15 5h1v1h-1zM18 5h1v1h-1zM19 5h1v1h-1zM20 5h1v1h-1zM24 5h1v1h-1zM25 5h1v1h-1zM27 5h1v1h-1zM28 5h1v1h-1zM29 5h1v1h-1zM30 5h1v1h-1zM32 5h1v1h-1zM34 5h1v1h-1zM40 5h1v1h-1zM4 6h1v1h-1zM6 6h1v1h-1zM7 6h1v1h-1zM8 6h1v1h-1zM10 6h1v1h-1zM12 6h1v1h-1zM13 6h1v1h-1zM19 6h1v1h-1zM20 6h1v1h-1zM21 6h1v1h-1zM22 6h1v1h-1zM26 6h1v1h-1zM27 6h1v1h-1zM30 6h1v1h-1zM31 6h1v1h-1zM34 6h1v1h-1zM36 6h1v1h-1zM37 6h1v1h-1zM38 6h1v1h-1zM40 6h1v1h-1zM4 7h1v1h-1zM6 7h1v1h-1zM7 7h1v1h-1zM8 7h1v1h-1zM10 7h1v1h-1zM15 7h1v1h-1zM17 7h1v1h-1zM21 7h1v1h-1zM23 7h1v1h-1zM24 7h1v1h-1zM25 7h1v1h-1zM27 7h1v1h-1zM29 7h1v1h-1zM31 7h1v1h-1zM32 7h1v1h-1zM34 7h1v1h-1zM36 7h1v1h-1zM37 7h1v1h-1zM38 7h1v1h-1zM40 7h1v1h-1zM4 8h1v1h-1zM6 8h1v1h-1zM7 8h1v1h-1zM8 8h1v1h-1zM10 8h1v1h-1zM12 8h1v1h-1zM13 8h1v1h-1zM14 8h1v1h-1zM15 8h1v1h-1zM16 8h1v1h-1zM17 8h1v1h-1zM19 8h1v1h-1zM22 8h1v1h-1zM24 8h1v1h-1zM25 8h1v1h-1zM26 8h1v1h-1zM29 8h1v1h-1zM34 8h1v1h-1zM36 8h1v1h-1zM37 8h1v1h-1zM38 8h1v1h-1zM40 8h1v1h-1zM4 9h1v1h-1zM10 9h1v1h-1zM14 9h1v1h-1zM15 9h1v1h-1zM17 9h1v1h-1zM18 9h1v1h-1zM20 9h1v1h-1zM21 9h1v1h-1zM24 9h1v1h-1zM25 9h1v1h-1zM30 9h1v1h-1zM32 9h1v1h-1zM34 9h1v1h-1zM40 9h1v1h-1zM4 10h1v1h-1zM5 10h1v1h-1zM6 10h1v1h-1zM7 10h1v1h-1zM8 10h1v1h-1zM9 10h1v1h-1zM10 10h1v1h-1zM12 10h1v1h-1zM14 10h1v1h-1zM16 10h1v1h-1zM18 10h1v1h-1zM20 10h1v1h-1zM22 10h1v1h-1zM24 10h1v1h-1zM26 10h1v1h-1zM28 10h1v1h-1zM30 10h1v1h-1zM32 10h1v1h-1zM34 10h1v1h-1zM35 10h1v1h-1zM36 10h1v1h-1zM37 10h1v1h-1zM38 10h1v1h-1zM39 10h1v1h-1zM40 10h1v1h-1zM12 11h1v1h-1zM14 11h1v1h-1zM19 11h1v1h-1zM21 11h1v1h-1zM22 11h1v1h-1zM27 11h1v1h-1zM28 11h1v1h-1zM30 11h1v1h-1zM31 11h1v1h-1zM32 11h1v1h-1zM9 12h1v1h-1zM10 12h1v1h-1zM14 12h1v1h-1zM16 12h1v1h-1zM17 12h1v1h-1zM22 12h1v1h-1zM24 12h1v1h-1zM25 12h1v1h-1zM26 12h1v1h-1zM27 12h1v1h-1zM29 12h1v1h-1zM30 12h1v1h-1zM34 12h1v1h-1zM36 12h1v1h-1zM38 12h1v1h-1zM40 12h1v1h-1zM4 13h1v1h-1zM5 13h1v1h-1zM9 13h1v1h-1zM11 13h1v1h-1zM12 13h1v1h-1zM13 13h1v1h-1zM15 13h1v1h-1zM16 13h1v1h-1zM19 13h1v1h-1zM23 13h1v1h-1zM27 13h1v1h-1zM29 13h1v1h-1zM30 13h1v1h-1zM31 13h1v1h-1zM36 13h1v1h-1zM37 13h1v1h-1zM38 13h1v1h-1zM4 14h1v1h-1zM5 14h1v1h-1zM6 14h1v1h-1zM9 14h1v1h-1zM10 14h1v1h-1zM15 14h1v1h-1zM16 14h1v1h-1zM17 14h1v1h-1zM18 14h1v1h-1zM20 14h1v1h-1zM23 14h1v1h-1zM28 14h1v1h-1zM29 14h1v1h-1zM30 14h1v1h-1zM31 14h1v1h-1zM34 14h1v1h-1zM35 14h1v1h-1zM36 14h1v1h-1zM37 14h1v1h-1zM38 14h1v1h-1zM39 14h1v1h-1zM40 14h1v1h-1zM4 15h1v1h-1zM7 15h1v1h-1zM12 15h1v1h-1zM13 15h1v1h-1zM15 15h1v1h-1zM16 15h1v1h-1zM17 15h1v1h-1zM22 15h1v1h-1zM23 15h1v1h-1zM24 15h1v1h-1zM25 15h1v1h-1zM26 15h1v1h-1zM30 15h1v1h-1zM32 15h1v1h-1zM34 15h1v1h-1zM35 15h1v1h-1zM37 15h1v1h-1zM40 15h1v1h-1zM5 16h1v1h-1zM7 16h1v1h-1zM10 16h1v1h-1zM11 16h1v1h-1zM12 16h1v1h-1zM14 16h1v1h-1zM17 16h1v1h-1zM20 16h1v1h-1zM25 16h1v1h-1zM26 16h1v1h-1zM27 16h1v1h-1zM31 16h1v1h-1zM32 16h1v1h-1zM34 16h1v1h-1zM35 16h1v1h-1zM37 16h1v1h-1zM40 16h1v1h-1zM5 17h1v1h-1zM6 17h1v1h-1zM7 17h1v1h-1zM11 17h1v1h-1zM12 17h1v1h-1zM14 17h1v1h-1zM15 17h1v1h-1zM19 17h1v1h-1zM20 17h1v1h-1zM22 17h1v1h-1zM23 17h1v1h-1zM24 17h1v1h-1zM27 17h1v1h-1zM28 17h1v1h-1zM31 17h1v1h-1zM32 17h1v1h-1zM33 17h1v1h-1zM35 17h1v1h-1zM38 17h1v1h-1zM4 18h1v1h-1zM5 18h1v1h-1zM7 18h1v1h-1zM9 18h1v1h-1zM10 18h1v1h-1zM12 18h1v1h-1zM13 18h1v1h-1zM16 18h1v1h-1zM17 18h1v1h-1zM18 18h1v1h-1zM19 18h1v1h-1zM21 18h1v1h-1zM22 18h1v1h-1zM25 18h1v1h-1zM26 18h1v1h-1zM28 18h1v1h-1zM30 18h1v1h-1zM31 18h1v1h-1zM32 18h1v1h-1zM33 18h1v1h-1zM34 18h1v1h-1zM36 18h1v1h-1zM37 18h1v1h-1zM39 18h1v1h-1zM40 18h1v1h-1zM5 19h1v1h-1zM7 19h1v1h-1zM8 19h1v1h-1zM11 19h1v1h-1zM12 19h1v1h-1zM13 19h1v1h-1zM14 19h1v1h-1zM17 19h1v1h-1zM18 19h1v1h-1zM20 19h1v1h-1zM25 19h1v1h-1zM28 19h1v1h-1zM30 19h1v1h-1zM31 19h1v1h-1zM32 19h1v1h-1zM33 19h1v1h-1zM34 19h1v1h-1zM35 19h1v1h-1zM37 19h1v1h-1zM38 19h1v1h-1zM39 19h1v1h-1zM40 19h1v1h-1zM4 20h1v1h-1zM6 20h1v1h-1zM7 20h1v1h-1zM10 20h1v1h-1zM11 20h1v1h-1zM12 20h1v1h-1zM13 20h1v1h-1zM16 20h1v1h-1zM19 20h1v1h-1zM25 20h1v1h-1zM29 20h1v1h-1zM30 20h1v1h-1zM31 20h1v1h-1zM34 20h1v1h-1zM36 20h1v1h-1zM38 20h1v1h-1zM39 20h1v1h-1zM40 20h1v1h-1zM4 21h1v1h-1zM8 21h1v1h-1zM9 21h1v1h-1zM13 21h1v1h-1zM15 21h1v1h-1zM17 21h1v1h-1zM21 21h1v1h-1zM22 21h1v1h-1zM23 21h1v1h-1zM24 21h1v1h-1zM26 21h1v1h-1zM27 21h1v1h-1zM29 21h1v1h-1zM31 21h1v1h-1zM32 21h1v1h-1zM35 21h1v1h-1zM6 22h1v1h-1zM7 22h1v1h-1zM10 22h1v1h-1zM11 22h1v1h-1zM12 22h1v1h-1zM16 22h1v1h-1zM17 22h1v1h-1zM18 22h1v1h-1zM20 22h1v1h-1zM21 22h1v1h-1zM22 22h1v1h-1zM23 22h1v1h-1zM24 22h1v1h-1zM25 22h1v1h-1zM27 22h1v1h-1zM29 22h1v1h-1zM31 22h1v1h-1zM33 22h1v1h-1zM34 22h1v1h-1zM35 22h1v1h-1zM36 22h1v1h-1zM38 22h1v1h-1zM40 22h1v1h-1zM4 23h1v1h-1zM5 23h1v1h-1zM6 23h1v1h-1zM9 23h1v1h-1zM12 23h1v1h-1zM15 23h1v1h-1zM17 23h1v1h-1zM19 23h1v1h-1zM21 23h1v1h-1zM22 23h1v1h-1zM23 23h1v1h-1zM24 23h1v1h-1zM25 23h1v1h-1zM28 23h1v1h-1zM30 23h1v1h-1zM31 23h1v1h-1zM32 23h1v1h-1zM33 23h1v1h-1zM34 23h1v1h-1zM36 23h1v1h-1zM37 23h1v1h-1zM4 24h1v1h-1zM5 24h1v1h-1zM7 24h1v1h-1zM9 24h1v1h-1zM10 24h1v1h-1zM12 24h1v1h-1zM13 24h1v1h-1zM15 24h1v1h-1zM17 24h1v1h-1zM18 24h1v1h-1zM21 24h1v1h-1zM22 24h1v1h-1zM23 24h1v1h-1zM24 24h1v1h-1zM25 24h1v1h-1zM28 24h1v1h-1zM29 24h1v1h-1zM31 24h1v1h-1zM34 24h1v1h-1zM35 24h1v1h-1zM36 24h1v1h-1zM38 24h1v1h-1zM4 25h1v1h-1zM6 25h1v1h-1zM7 25h1v1h-1zM8 25h1v1h-1zM11 25h1v1h-1zM12 25h1v1h-1zM13 25h1v1h-1zM14 25h1v1h-1zM15 25h1v1h-1zM17 25h1v1h-1zM18 25h1v1h-1zM20 25h1v1h-1zM22 25h1v1h-1zM23 25h1v1h-1zM25 25h1v1h-1zM26 25h1v1h-1zM27 25h1v1h-1zM29 25h1v1h-1zM30 25h1v1h-1zM31 25h1v1h-1zM32 25h1v1h-1zM35 25h1v1h-1zM36 25h1v1h-1zM39 25h1v1h-1zM6 26h1v1h-1zM8 26h1v1h-1zM10 26h1v1h-1zM12 26h1v1h-1zM14 26h1v1h-1zM16 26h1v1h-1zM21 26h1v1h-1zM22 26h1v1h-1zM24 26h1v1h-1zM25 26h1v1h-1zM28 26h1v1h-1zM30 26h1v1h-1zM31 26h1v1h-1zM33 26h1v1h-1zM39 26h1v1h-1zM40 26h1v1h-1zM6 27h1v1h-1zM7 27h1v1h-1zM8 27h1v1h-1zM9 27h1v1h-1zM11 27h1v1h-1zM14 27h1v1h-1zM18 27h1v1h-1zM21 27h1v1h-1zM22 27h1v1h-1zM23 27h1v1h-1zM24 27h1v1h-1zM26 27h1v1h-1zM27 27h1v1h-1zM31 27h1v1h-1zM35 27h1v1h-1zM37 27h1v1h-1zM39 27h1v1h-1zM40 27h1v1h-1zM4 28h1v1h-1zM7 28h1v1h-1zM9 28h1v1h-1zM10 28h1v1h-1zM11 28h1v1h-1zM13 28h1v1h-1zM14 28h1v1h-1zM16 28h1v1h-1zM18 28h1v1h-1zM22 28h1v1h-1zM27 28h1v1h-1zM29 28h1v1h-1zM30 28h1v1h-1zM34 28h1v1h-1zM37 28h1v1h-1zM40 28h1v1h-1zM4 29h1v1h-1zM7 29h1v1h-1zM9 29h1v1h-1zM12 29h1v1h-1zM14 29h1v1h-1zM15 29h1v1h-1zM20 29h1v1h-1zM23 29h1v1h-1zM25 29h1v1h-1zM28 29h1v1h-1zM31 29h1v1h-1zM32 29h1v1h-1zM35 29h1v1h-1zM38 29h1v1h-1zM4 30h1v1h-1zM6 30h1v1h-1zM7 30h1v1h-1zM10 30h1v1h-1zM13 30h1v1h-1zM14 30h1v1h-1zM15 30h1v1h-1zM17 30h1v1h-1zM19 30h1v1h-1zM20 30h1v1h-1zM22 30h1v1h-1zM29 30h1v1h-1zM31 30h1v1h-1zM34 30h1v1h-1zM35 30h1v1h-1zM39 30h1v1h-1zM40 30h1v1h-1zM4 31h1v1h-1zM6 31h1v1h-1zM8 31h1v1h-1zM9 31h1v1h-1zM12 31h1v1h-1zM16 31h1v1h-1zM17 31h1v1h-1zM19 31h1v1h-1zM20 31h1v1h-1zM22 31h1v1h-1zM23 31h1v1h-1zM24 31h1v1h-1zM28 31h1v1h-1zM30 31h1v1h-1zM32 31h1v1h-1zM33 31h1v1h-1zM35 31h1v1h-1zM36 31h1v1h-1zM37 31h1v1h-1zM38 31h1v1h-1zM39 31h1v1h-1zM40 31h1v1h-1zM4 32h1v1h-1zM10 32h1v1h-1zM11 32h1v1h-1zM12 32h1v1h-1zM13 32h1v1h-1zM15 32h1v1h-1zM17 32h1v1h-1zM18 32h1v1h-1zM23 32h1v1h-1zM25 32h1v1h-1zM28 32h1v1h-1zM29 32h1v1h-1zM30 32h1v1h-1zM32 32h1v1h-1zM33 32h1v1h-1zM34 32h1v1h-1zM35 32h1v1h-1zM36 32h1v1h-1zM37 32h1v1h-1zM38 32h1v1h-1zM39 32h1v1h-1zM12 33h1v1h-1zM14 33h1v1h-1zM16 33h1v1h-1zM18 33h1v1h-1zM19 33h1v1h-1zM21 33h1v1h-1zM23 33h1v1h-1zM26 33h1v1h-1zM27 33h1v1h-1zM29 33h1v1h-1zM30 33h1v1h-1zM32 33h1v1h-1zM36 33h1v1h-1zM37 33h1v1h-1zM4 34h1v1h-1zM5 34h1v1h-1zM6 34h1v1h-1zM7 34h1v1h-1zM8 34h1v1h-1zM9 34h1v1h-1zM10 34h1v1h-1zM13 34h1v1h-1zM15 34h1v1h-1zM16 34h1v1h-1zM18 34h1v1h-1zM21 34h1v1h-1zM22 34h1v1h-1zM25 34h1v1h-1zM27 34h1v1h-1zM28 34h1v1h-1zM29 34h1v1h-1zM30 34h1v1h-1zM32 34h1v1h-1zM34 34h1v1h-1zM36 34h1v1h-1zM37 34h1v1h-1zM38 34h1v1h-1zM40 34h1v1h-1zM4 35h1v1h-1zM10 35h1v1h-1zM12 35h1v1h-1zM16 35h1v1h-1zM17 35h1v1h-1zM18 35h1v1h-1zM20 35h1v1h-1zM21 35h1v1h-1zM22 35h1v1h-1zM25 35h1v1h-1zM26 35h1v1h-1zM27 35h1v1h-1zM28 35h1v1h-1zM31 35h1v1h-1zM32 35h1v1h-1zM36 35h1v1h-1zM37 35h1v1h-1zM4 36h1v1h-1zM6 36h1v1h-1zM7 36h1v1h-1zM8 36h1v1h-1zM10 36h1v1h-1zM14 36h1v1h-1zM17 36h1v1h-1zM18 36h1v1h-1zM19 36h1v1h-1zM20 36h1v1h-1zM21 36h1v1h-1zM22 36h1v1h-1zM23 36h1v1h-1zM24 36h1v1h-1zM25 36h1v1h-1zM28 36h1v1h-1zM29 36h1v1h-1zM31 36h1v1h-1zM32 36h1v1h-1zM33 36h1v1h-1zM34 36h1v1h-1zM35 36h1v1h-1zM36 36h1v1h-1zM38 36h1v1h-1zM40 36h1v1h-1zM4 37h1v1h-1zM6 37h1v1h-1zM7 37h1v1h-1zM8 37h1v1h-1zM10 37h1v1h-1zM14 37h1v1h-1zM16 37h1v1h-1zM17 37h1v1h-1zM18 37h1v1h-1zM20 37h1v1h-1zM24 37h1v1h-1zM25 37h1v1h-1zM26 37h1v1h-1zM29 37h1v1h-1zM30 37h1v1h-1zM34 37h1v1h-1zM37 37h1v1h-1zM38 37h1v1h-1zM4 38h1v1h-1zM6 38h1v1h-1zM7 38h1v1h-1zM8 38h1v1h-1zM10 38h1v1h-1zM13 38h1v1h-1zM15 38h1v1h-1zM17 38h1v1h-1zM19 38h1v1h-1zM21 38h1v1h-1zM24 38h1v1h-1zM27 38h1v1h-1zM28 38h1v1h-1zM29 38h1v1h-1zM30 38h1v1h-1zM32 38h1v1h-1zM33 38h1v1h-1zM35 38h1v1h-1zM37 38h1v1h-1zM40 38h1v1h-1zM4 39h1v1h-1zM10 39h1v1h-1zM13 39h1v1h-1zM15 39h1v1h-1zM16 39h1v1h-1zM18 39h1v1h-1zM20 39h1v1h-1zM21 39h1v1h-1zM22 39h1v1h-1zM27 39h1v1h-1zM30 39h1v1h-1zM31 39h1v1h-1zM32 39h1v1h-1zM33 39h1v1h-1zM35 39h1v1h-1zM37 39h1v1h-1zM40 39h1v1h-1zM4 40h1v1h-1zM5 40h1v1h-1zM6 40h1v1h-1zM7 40h1v1h-1zM8 40h1v1h-1zM9 40h1v1h-1zM10 40h1v1h-1zM13 40h1v1h-1zM17 40h1v1h-1zM20 40h1v1h-1zM21 40h1v1h-1zM23 40h1v1h-1zM24 40h1v1h-1zM25 40h1v1h-1zM32 40h1v1h-1zM34 40h1v1h-1zM35 40h1v1h-1zM36 40h1v1h-1zM37 40h1v1h-1zM40 40h1v1h-1z"/></svg>